<mxfile host="app.diagrams.net" agent="Mozilla/5.0 (Windows NT 10.0; Win64; x64) AppleWebKit/537.36 (KHTML, like Gecko) Chrome/136.0.0.0 Safari/537.36 Edg/136.0.0.0" version="27.0.6">
  <diagram name="第 1 页" id="vmk-NvKaFd0zlOAjQwyj">
    <mxGraphModel dx="311" dy="1372" grid="1" gridSize="10" guides="1" tooltips="1" connect="1" arrows="1" fold="1" page="1" pageScale="1" pageWidth="827" pageHeight="1169" math="0" shadow="0">
      <root>
        <mxCell id="0" />
        <mxCell id="1" parent="0" />
        <mxCell id="YPT4-H6tSCDu5bqNGPTB-1" value="鸡舍云产品" style="text;html=1;align=center;verticalAlign=middle;whiteSpace=wrap;rounded=0;" vertex="1" parent="1">
          <mxGeometry x="240" y="195" width="60" height="30" as="geometry" />
        </mxCell>
        <mxCell id="YPT4-H6tSCDu5bqNGPTB-2" value="" style="shape=curlyBracket;whiteSpace=wrap;html=1;rounded=1;labelPosition=left;verticalLabelPosition=middle;align=right;verticalAlign=middle;size=0.3;" vertex="1" parent="1">
          <mxGeometry x="314" y="60" width="20" height="285" as="geometry" />
        </mxCell>
        <mxCell id="YPT4-H6tSCDu5bqNGPTB-3" value="属性" style="text;html=1;align=center;verticalAlign=middle;resizable=0;points=[];autosize=1;strokeColor=none;fillColor=none;" vertex="1" parent="1">
          <mxGeometry x="334" y="50" width="50" height="30" as="geometry" />
        </mxCell>
        <mxCell id="YPT4-H6tSCDu5bqNGPTB-4" value="命令" style="text;html=1;align=center;verticalAlign=middle;resizable=0;points=[];autosize=1;strokeColor=none;fillColor=none;" vertex="1" parent="1">
          <mxGeometry x="334" y="330" width="50" height="30" as="geometry" />
        </mxCell>
        <mxCell id="YPT4-H6tSCDu5bqNGPTB-5" value="" style="shape=curlyBracket;whiteSpace=wrap;html=1;rounded=1;labelPosition=left;verticalLabelPosition=middle;align=right;verticalAlign=middle;" vertex="1" parent="1">
          <mxGeometry x="394" y="-55" width="20" height="240" as="geometry" />
        </mxCell>
        <mxCell id="YPT4-H6tSCDu5bqNGPTB-7" value="" style="shape=curlyBracket;whiteSpace=wrap;html=1;rounded=1;labelPosition=left;verticalLabelPosition=middle;align=right;verticalAlign=middle;" vertex="1" parent="1">
          <mxGeometry x="394" y="225" width="20" height="240" as="geometry" />
        </mxCell>
        <mxCell id="YPT4-H6tSCDu5bqNGPTB-8" value="Water" style="text;html=1;align=center;verticalAlign=middle;resizable=0;points=[];autosize=1;strokeColor=none;fillColor=none;" vertex="1" parent="1">
          <mxGeometry x="420" y="-82" width="60" height="30" as="geometry" />
        </mxCell>
        <mxCell id="YPT4-H6tSCDu5bqNGPTB-9" value="MQ2" style="text;html=1;align=center;verticalAlign=middle;resizable=0;points=[];autosize=1;strokeColor=none;fillColor=none;" vertex="1" parent="1">
          <mxGeometry x="425" y="-47" width="50" height="30" as="geometry" />
        </mxCell>
        <mxCell id="YPT4-H6tSCDu5bqNGPTB-10" value="Flame" style="text;html=1;align=center;verticalAlign=middle;resizable=0;points=[];autosize=1;strokeColor=none;fillColor=none;" vertex="1" parent="1">
          <mxGeometry x="420" y="-13" width="60" height="30" as="geometry" />
        </mxCell>
        <mxCell id="YPT4-H6tSCDu5bqNGPTB-11" value="DHT11_T" style="text;html=1;align=center;verticalAlign=middle;resizable=0;points=[];autosize=1;strokeColor=none;fillColor=none;" vertex="1" parent="1">
          <mxGeometry x="415" y="22" width="70" height="30" as="geometry" />
        </mxCell>
        <mxCell id="YPT4-H6tSCDu5bqNGPTB-12" value="DHT11_H" style="text;html=1;align=center;verticalAlign=middle;resizable=0;points=[];autosize=1;strokeColor=none;fillColor=none;" vertex="1" parent="1">
          <mxGeometry x="410" y="56" width="80" height="30" as="geometry" />
        </mxCell>
        <mxCell id="YPT4-H6tSCDu5bqNGPTB-13" value="LED1" style="text;html=1;align=center;verticalAlign=middle;resizable=0;points=[];autosize=1;strokeColor=none;fillColor=none;" vertex="1" parent="1">
          <mxGeometry x="425" y="91" width="50" height="30" as="geometry" />
        </mxCell>
        <mxCell id="YPT4-H6tSCDu5bqNGPTB-14" value="LED2" style="text;html=1;align=center;verticalAlign=middle;resizable=0;points=[];autosize=1;strokeColor=none;fillColor=none;" vertex="1" parent="1">
          <mxGeometry x="425" y="125" width="50" height="30" as="geometry" />
        </mxCell>
        <mxCell id="YPT4-H6tSCDu5bqNGPTB-15" value="Relays" style="text;html=1;align=center;verticalAlign=middle;resizable=0;points=[];autosize=1;strokeColor=none;fillColor=none;" vertex="1" parent="1">
          <mxGeometry x="420" y="160" width="60" height="30" as="geometry" />
        </mxCell>
        <mxCell id="YPT4-H6tSCDu5bqNGPTB-17" value="&lt;span style=&quot;color: rgb(25, 25, 25); font-family: Helvetica, Arial, PingFangSC-Regular, &amp;quot;Hiragino Sans GB&amp;quot;, &amp;quot;Microsoft YaHei&amp;quot;, 微软雅黑, &amp;quot;Microsoft JhengHei&amp;quot;; text-align: start; background-color: rgb(255, 255, 255);&quot;&gt;RELAYS_CTL&lt;/span&gt;" style="text;html=1;align=center;verticalAlign=middle;resizable=0;points=[];autosize=1;strokeColor=none;fillColor=none;" vertex="1" parent="1">
          <mxGeometry x="430" y="210" width="100" height="30" as="geometry" />
        </mxCell>
        <mxCell id="YPT4-H6tSCDu5bqNGPTB-18" value="LED1_CTL" style="text;html=1;align=center;verticalAlign=middle;resizable=0;points=[];autosize=1;strokeColor=none;fillColor=none;" vertex="1" parent="1">
          <mxGeometry x="440" y="258" width="80" height="30" as="geometry" />
        </mxCell>
        <mxCell id="YPT4-H6tSCDu5bqNGPTB-19" value="BEEP_CTL" style="text;html=1;align=center;verticalAlign=middle;resizable=0;points=[];autosize=1;strokeColor=none;fillColor=none;" vertex="1" parent="1">
          <mxGeometry x="440" y="306" width="80" height="30" as="geometry" />
        </mxCell>
        <mxCell id="YPT4-H6tSCDu5bqNGPTB-20" value="DHT11_T_LMT" style="text;html=1;align=center;verticalAlign=middle;resizable=0;points=[];autosize=1;strokeColor=none;fillColor=none;" vertex="1" parent="1">
          <mxGeometry x="425" y="354" width="110" height="30" as="geometry" />
        </mxCell>
        <mxCell id="YPT4-H6tSCDu5bqNGPTB-21" value="&lt;span style=&quot;color: rgb(25, 25, 25); font-family: Helvetica, Arial, PingFangSC-Regular, &amp;quot;Hiragino Sans GB&amp;quot;, &amp;quot;Microsoft YaHei&amp;quot;, 微软雅黑, &amp;quot;Microsoft JhengHei&amp;quot;; text-align: start; background-color: rgb(255, 255, 255);&quot;&gt;DHT11_H_LMT&lt;/span&gt;" style="text;html=1;align=center;verticalAlign=middle;resizable=0;points=[];autosize=1;strokeColor=none;fillColor=none;" vertex="1" parent="1">
          <mxGeometry x="425" y="402" width="110" height="30" as="geometry" />
        </mxCell>
        <mxCell id="YPT4-H6tSCDu5bqNGPTB-22" value="&lt;span style=&quot;color: rgb(25, 25, 25); font-family: Helvetica, Arial, PingFangSC-Regular, &amp;quot;Hiragino Sans GB&amp;quot;, &amp;quot;Microsoft YaHei&amp;quot;, 微软雅黑, &amp;quot;Microsoft JhengHei&amp;quot;; text-align: start; background-color: rgb(255, 255, 255);&quot;&gt;FORCE_STATUS&lt;/span&gt;" style="text;html=1;align=center;verticalAlign=middle;resizable=0;points=[];autosize=1;strokeColor=none;fillColor=none;" vertex="1" parent="1">
          <mxGeometry x="420" y="450" width="120" height="30" as="geometry" />
        </mxCell>
        <mxCell id="YPT4-H6tSCDu5bqNGPTB-23" value="&lt;span style=&quot;color: rgb(25, 25, 25); font-family: Helvetica, Arial, PingFangSC-Regular, &amp;quot;Hiragino Sans GB&amp;quot;, &amp;quot;Microsoft YaHei&amp;quot;, 微软雅黑, &amp;quot;Microsoft JhengHei&amp;quot;; text-align: start; background-color: rgb(255, 255, 255);&quot;&gt;RELAYS&lt;/span&gt;" style="text;html=1;align=center;verticalAlign=middle;resizable=0;points=[];autosize=1;strokeColor=none;fillColor=none;" vertex="1" parent="1">
          <mxGeometry x="565" y="210" width="70" height="30" as="geometry" />
        </mxCell>
        <mxCell id="YPT4-H6tSCDu5bqNGPTB-24" value="" style="shape=curlyBracket;whiteSpace=wrap;html=1;rounded=1;labelPosition=left;verticalLabelPosition=middle;align=right;verticalAlign=middle;size=0.5;" vertex="1" parent="1">
          <mxGeometry x="635" y="215" width="20" height="20" as="geometry" />
        </mxCell>
        <mxCell id="YPT4-H6tSCDu5bqNGPTB-25" value="ON" style="text;html=1;align=center;verticalAlign=middle;resizable=0;points=[];autosize=1;strokeColor=none;fillColor=none;" vertex="1" parent="1">
          <mxGeometry x="655" y="195" width="40" height="30" as="geometry" />
        </mxCell>
        <mxCell id="YPT4-H6tSCDu5bqNGPTB-26" value="OFF" style="text;html=1;align=center;verticalAlign=middle;resizable=0;points=[];autosize=1;strokeColor=none;fillColor=none;" vertex="1" parent="1">
          <mxGeometry x="650" y="220" width="50" height="30" as="geometry" />
        </mxCell>
      </root>
    </mxGraphModel>
  </diagram>
</mxfile>
